# xmcd
# 
# Track frame offsets:
#	150
#	12052
#	25217
#	39999
#	47943
#	61289
#	74208
#	85614
#	99726
#	112041
#
# Disc length: 1643 seconds
#
# Revision: 1
# Processed by: cddbd v1.4PL0 Copyright (c) Steve Scherf et al.
# Submitted via: Audio-CD-Archiv 2.10.438
#
DISCID=8306690a
DTITLE=The Platters - Superhits
DYEAR=1900
DGENRE=blues
TTITLE0=Only You
TTITLE1=Little Things Mean A Lot
TTITLE2=Down The River Of Golden Dreams
TTITLE3=Don't Be Cruel
TTITLE4=Rainbow On The River
TTITLE5=Love Me tender
TTITLE6=Ebb Tide
TTITLE7=Volare
TTITLE8=Reflections In The Water
TTITLE9=By The River Sainte Marie
EXTD=
EXTT0=
EXTT1=
EXTT2=
EXTT3=
EXTT4=
EXTT5=
EXTT6=
EXTT7=
EXTT8=
EXTT9=
PLAYORDER=
